<svg width="25" height="24" viewBox="0 0 25 24" fill="none" xmlns="http://www.w3.org/2000/svg">
<mask id="mask0_490_137" style="mask-type:alpha" maskUnits="userSpaceOnUse" x="0" y="0" width="25" height="24">
<rect x="0.5" width="24" height="24" fill="#D9D9D9"/>
</mask>
<g mask="url(#mask0_490_137)">
<path d="M4.5 11C4.21667 11 3.97917 10.9042 3.7875 10.7125C3.59583 10.5208 3.5 10.2833 3.5 10V4C3.5 3.71667 3.59583 3.47917 3.7875 3.2875C3.97917 3.09583 4.21667 3 4.5 3H10.5C10.7833 3 11.0208 3.09583 11.2125 3.2875C11.4042 3.47917 11.5 3.71667 11.5 4V10C11.5 10.2833 11.4042 10.5208 11.2125 10.7125C11.0208 10.9042 10.7833 11 10.5 11H4.5ZM14.5 11C14.2167 11 13.9792 10.9042 13.7875 10.7125C13.5958 10.5208 13.5 10.2833 13.5 10V4C13.5 3.71667 13.5958 3.47917 13.7875 3.2875C13.9792 3.09583 14.2167 3 14.5 3H20.5C20.7833 3 21.0208 3.09583 21.2125 3.2875C21.4042 3.47917 21.5 3.71667 21.5 4V10C21.5 10.2833 21.4042 10.5208 21.2125 10.7125C21.0208 10.9042 20.7833 11 20.5 11H14.5ZM4.5 21C4.21667 21 3.97917 20.9042 3.7875 20.7125C3.59583 20.5208 3.5 20.2833 3.5 20V14C3.5 13.7167 3.59583 13.4792 3.7875 13.2875C3.97917 13.0958 4.21667 13 4.5 13H10.5C10.7833 13 11.0208 13.0958 11.2125 13.2875C11.4042 13.4792 11.5 13.7167 11.5 14V20C11.5 20.2833 11.4042 20.5208 11.2125 20.7125C11.0208 20.9042 10.7833 21 10.5 21H4.5ZM17.5 21C17.2167 21 16.9792 20.9042 16.7875 20.7125C16.5958 20.5208 16.5 20.2833 16.5 20V18H14.475C14.1917 18 13.9583 17.9042 13.775 17.7125C13.5917 17.5208 13.5 17.2833 13.5 17C13.5 16.7167 13.5958 16.4792 13.7875 16.2875C13.9792 16.0958 14.2167 16 14.5 16H16.5V13.975C16.5 13.6917 16.5958 13.4583 16.7875 13.275C16.9792 13.0917 17.2167 13 17.5 13C17.7833 13 18.0208 13.0958 18.2125 13.2875C18.4042 13.4792 18.5 13.7167 18.5 14V16H20.525C20.8083 16 21.0417 16.0958 21.225 16.2875C21.4083 16.4792 21.5 16.7167 21.5 17C21.5 17.2833 21.4042 17.5208 21.2125 17.7125C21.0208 17.9042 20.7833 18 20.5 18H18.5V20.025C18.5 20.3083 18.4042 20.5417 18.2125 20.725C18.0208 20.9083 17.7833 21 17.5 21ZM15.5 5V9H19.5V5H15.5ZM5.5 5V9H9.5V5H5.5ZM5.5 15V19H9.5V15H5.5Z" fill="#C4C4C4"/>
</g>
</svg>
